<svg width="62" height="40" viewBox="0 0 62 40" fill="none" xmlns="http://www.w3.org/2000/svg">
<g clip-path="url(#clip0)">
<path d="M61.3338 37.0388C61.3338 38.6737 60.0055 40 58.3681 40C56.7306 40 55.4023 38.6737 55.4023 37.0388C55.4023 35.4039 56.7306 34.0776 58.3681 34.0776C60.0006 34.0776 61.3338 35.4039 61.3338 37.0388Z" fill="#03CDEF"/>
<path fill-rule="evenodd" clip-rule="evenodd" d="M19.7843 3.94984C11.0417 3.94984 3.9559 11.0248 3.9559 19.754C3.9559 28.4832 11.0417 35.5582 19.7843 35.5582H26.2133C27.3049 35.5582 28.1936 36.4408 28.1936 37.5356C28.1936 38.6255 27.3097 39.5129 26.2133 39.5129H19.7843C8.85851 39.5081 0 30.6631 0 19.754C0 8.84495 8.85851 0 19.7843 0H59.353C60.4446 0 61.3333 0.882566 61.3333 1.97733C61.3333 3.06728 60.4494 3.95467 59.353 3.95467H19.7843V3.94984Z" fill="white"/>
<path fill-rule="evenodd" clip-rule="evenodd" d="M11.8728 19.7541C11.8728 15.3895 15.4182 11.8544 19.7846 11.8544H35.6131V38.0275C35.6131 39.1175 36.497 40.0049 37.5934 40.0049C38.685 40.0049 39.5738 39.1223 39.5738 38.0275V9.87705C39.5738 8.78711 38.6899 7.89972 37.5934 7.89972H19.7846C13.2301 7.89972 7.91211 13.2048 7.91211 19.7541C7.91211 26.3034 13.2253 31.6084 19.7846 31.6084H26.2136C27.3052 31.6084 28.1939 30.7259 28.1939 29.6311C28.1939 28.5363 27.31 27.6538 26.2136 27.6538H19.7846C15.4133 27.6538 11.8728 24.1187 11.8728 19.7541Z" fill="white"/>
<path d="M45.5048 7.89972C46.5964 7.89972 47.4851 8.78229 47.4851 9.87705V38.0275C47.4851 39.1175 46.6012 40.0049 45.5048 40.0049C44.4132 40.0049 43.5244 39.1223 43.5244 38.0275V9.87705C43.5244 8.78711 44.4132 7.89972 45.5048 7.89972Z" fill="white"/>
</g>
<defs>
<clipPath id="clip0">
<rect width="61.3333" height="40" fill="white"/>
</clipPath>
</defs>
</svg>
