<svg width="77" height="50" viewBox="0 0 77 50" fill="none" xmlns="http://www.w3.org/2000/svg">
<g clip-path="url(#clip0)">
<path d="M76.6667 46.2985C76.6667 48.3422 75.0064 50 72.9596 50C70.9128 50 69.2524 48.3422 69.2524 46.2985C69.2524 44.2549 70.9128 42.597 72.9596 42.597C75.0003 42.597 76.6667 44.2549 76.6667 46.2985Z" fill="#03CDEF"/>
<path fill-rule="evenodd" clip-rule="evenodd" d="M24.7304 4.9373C13.8022 4.9373 4.94487 13.781 4.94487 24.6925C4.94487 35.604 13.8022 44.4478 24.7304 44.4478H32.7666C34.1311 44.4478 35.242 45.551 35.242 46.9195C35.242 48.2819 34.1371 49.3911 32.7666 49.3911H24.7304C11.0731 49.3851 0 38.3289 0 24.6925C0 11.0562 11.0731 0 24.7304 0H74.1912C75.5557 0 76.6667 1.10321 76.6667 2.47167C76.6667 3.8341 75.5618 4.94333 74.1912 4.94333H24.7304V4.9373Z" fill="white"/>
<path fill-rule="evenodd" clip-rule="evenodd" d="M14.8406 24.6926C14.8406 19.2368 19.2722 14.818 24.7303 14.818H44.5158V47.5344C44.5158 48.8968 45.6207 50.0061 46.9913 50.0061C48.3558 50.0061 49.4668 48.9029 49.4668 47.5344V12.3463C49.4668 10.9839 48.3619 9.87463 46.9913 9.87463H24.7303C16.5372 9.87463 9.88965 16.5059 9.88965 24.6926C9.88965 32.8792 16.5311 39.5105 24.7303 39.5105H32.7665C34.131 39.5105 35.2419 38.4073 35.2419 37.0389C35.2419 35.6704 34.137 34.5672 32.7665 34.5672H24.7303C19.2662 34.5672 14.8406 30.1483 14.8406 24.6926Z" fill="white"/>
<path d="M56.8812 9.87463C58.2457 9.87463 59.3567 10.9778 59.3567 12.3463V47.5344C59.3567 48.8968 58.2518 50.0061 56.8812 50.0061C55.5167 50.0061 54.4058 48.9029 54.4058 47.5344V12.3463C54.4058 10.9839 55.5167 9.87463 56.8812 9.87463Z" fill="white"/>
</g>
<defs>
<clipPath id="clip0">
<rect width="76.6667" height="50" fill="white"/>
</clipPath>
</defs>
</svg>
