<svg width="260" height="30" viewBox="0 0 260 30" fill="none" xmlns="http://www.w3.org/2000/svg">
<g clip-path="url(#clip0)">
<path d="M56.1167 17.7199V17.6505C56.1167 10.9144 61.163 5.39355 68.3389 5.39355C72.7081 5.39355 75.347 6.91555 77.6155 9.08568L74.9419 12.1644C73.0438 10.4051 71.0125 9.21879 68.3042 9.21879C63.7672 9.21879 60.4859 12.9456 60.4859 17.5811V17.6505C60.4859 22.2859 63.7672 26.0822 68.3042 26.0822C71.2151 26.0822 73.0785 24.8959 75.1098 23.0035L77.7834 25.7118C75.3123 28.2871 72.604 29.9074 68.1711 29.9074C61.2672 29.9074 56.1167 24.5255 56.1167 17.7199Z" fill="white"/>
<path d="M81.3423 4.78589H85.4395V29.5023H81.3423V4.78589Z" fill="white"/>
<path d="M89.2939 20.6655V20.5961C89.2939 15.4861 93.3564 11.25 98.8426 11.25C104.329 11.25 108.356 15.4167 108.356 20.5266V20.5961C108.356 25.6771 104.294 29.9074 98.7731 29.9074C93.3217 29.9074 89.2939 25.7407 89.2939 20.6655ZM104.259 20.6655V20.5961C104.259 17.4479 101.991 14.838 98.7731 14.838C95.4919 14.838 93.3912 17.4132 93.3912 20.5266V20.5961C93.3912 23.7095 95.6597 26.3542 98.8426 26.3542C102.159 26.3542 104.259 23.7442 104.259 20.6655Z" fill="white"/>
<path d="M111.742 22.9978V11.6262H115.839V21.7825C115.839 24.5603 117.228 26.1517 119.664 26.1517C122.037 26.1517 123.692 24.4908 123.692 21.7188V11.6262H127.789V29.5024H123.692V26.7246C122.54 28.4144 120.879 29.8728 118.107 29.8728C114.08 29.8728 111.742 27.1644 111.742 22.9978Z" fill="white"/>
<path d="M131.748 20.5961V20.5266C131.748 14.6007 135.775 11.25 140.04 11.25C142.986 11.25 144.849 12.7373 146.134 14.3982V4.78589H150.231V29.5023H146.134V26.522C144.815 28.3854 142.951 29.8727 140.04 29.8727C135.845 29.8727 131.748 26.522 131.748 20.5961ZM146.204 20.5961V20.5266C146.204 17.0718 143.767 14.8033 141.024 14.8033C138.212 14.8033 135.88 16.9676 135.88 20.5266V20.5961C135.88 24.0509 138.246 26.3195 141.024 26.3195C143.767 26.3195 146.204 24.0162 146.204 20.5961Z" fill="white"/>
<path d="M161.267 9.65854H153.75V5.79858H172.98V9.65854H165.463V29.4965H161.267V9.65854Z" fill="white"/>
<path d="M174.201 11.6261H178.298V15.6539C179.415 12.9803 181.481 11.1515 184.629 11.2846V15.6191H184.392C180.804 15.6191 178.298 17.9571 178.298 22.6967V29.5022H174.201V11.6261Z" fill="white"/>
<path d="M187.812 22.9978V11.6262H191.91V21.7825C191.91 24.5603 193.299 26.1517 195.735 26.1517C198.102 26.1517 199.763 24.4908 199.763 21.7188V11.6262H203.86V29.5024H199.763V26.7246C198.611 28.4144 196.95 29.8728 194.178 29.8728C190.145 29.8728 187.812 27.1644 187.812 22.9978Z" fill="white"/>
<path d="M207.344 20.6655V20.5961C207.344 15.515 211.273 11.25 216.62 11.25C220.006 11.25 222.106 12.5 223.762 14.3287L221.221 17.0718C219.971 15.7523 218.646 14.838 216.586 14.838C213.605 14.838 211.441 17.4132 211.441 20.5266V20.5961C211.441 23.7789 213.64 26.3542 216.788 26.3542C218.715 26.3542 220.139 25.4398 221.429 24.1204L223.9 26.5567C222.141 28.5185 220.075 29.9074 216.586 29.9074C211.273 29.9074 207.344 25.7407 207.344 20.6655Z" fill="white"/>
<path d="M227.338 4.78589H231.435V19.5486L238.848 11.6262H243.825L236.713 18.9063L244.062 29.5023H239.323L233.941 21.7824L231.435 24.3866V29.4965H227.338V4.78589Z" fill="white"/>
<path d="M245.411 27.1643L247.239 24.3865C249.166 25.8448 251.267 26.5856 253.096 26.5856C254.855 26.5856 255.874 25.8391 255.874 24.6585V24.5891C255.874 23.2002 253.975 22.7256 251.881 22.0833C249.242 21.3367 246.296 20.2546 246.296 16.8344V16.765C246.296 13.3796 249.109 11.3136 252.662 11.3136C254.896 11.3136 257.332 12.0948 259.23 13.3448L257.604 16.2557C255.879 15.2083 254.051 14.5601 252.558 14.5601C250.966 14.5601 250.052 15.3067 250.052 16.3541V16.4236C250.052 17.7083 251.979 18.2523 254.08 18.9293C256.684 19.7395 259.629 20.9259 259.629 24.1435V24.2129C259.629 27.9687 256.718 29.8321 252.992 29.8321C250.457 29.8379 247.644 28.9235 245.411 27.1643Z" fill="white"/>
<path d="M45.9259 27.7778C45.9259 29.0046 44.9305 30 43.7037 30C42.4768 30 41.4814 29.0046 41.4814 27.7778C41.4814 26.5509 42.4768 25.5555 43.7037 25.5555C44.9305 25.5555 45.9259 26.5509 45.9259 27.7778Z" fill="#03CDEF"/>
<path fill-rule="evenodd" clip-rule="evenodd" d="M14.8148 2.96296C8.26968 2.96296 2.96296 8.26968 2.96296 14.8148C2.96296 21.36 8.26968 26.6667 14.8148 26.6667H19.6296C20.4456 26.6667 21.1111 27.3322 21.1111 28.1481C21.1111 28.9641 20.4456 29.6296 19.6296 29.6296H14.8148C6.63194 29.6296 0 22.9977 0 14.8148C0 6.63194 6.63194 0 14.8148 0H44.4444C45.2604 0 45.9259 0.665509 45.9259 1.48148C45.9259 2.29745 45.2604 2.96296 44.4444 2.96296H14.8148Z" fill="white"/>
<path fill-rule="evenodd" clip-rule="evenodd" d="M8.88874 14.8148C8.88874 11.5393 11.5392 8.88887 14.8147 8.88887H26.6665V28.5185C26.6665 29.3345 27.332 30 28.148 30C28.964 30 29.6295 29.3345 29.6295 28.5185V7.40738C29.6295 6.59141 28.964 5.9259 28.148 5.9259H14.8147C9.90726 5.9259 5.92578 9.90739 5.92578 14.8148C5.92578 19.7222 9.90726 23.7037 14.8147 23.7037H19.6295C20.4455 23.7037 21.111 23.0382 21.111 22.2222C21.111 21.4062 20.4455 20.7407 19.6295 20.7407H14.8147C11.5392 20.7407 8.88874 18.0903 8.88874 14.8148Z" fill="white"/>
<path d="M34.0743 5.9259C34.8902 5.9259 35.5557 6.59141 35.5557 7.40738V28.5185C35.5557 29.3345 34.8902 30 34.0743 30C33.2583 30 32.5928 29.3345 32.5928 28.5185V7.40738C32.5928 6.59141 33.2583 5.9259 34.0743 5.9259Z" fill="white"/>
</g>
<defs>
<clipPath id="clip0">
<rect width="259.63" height="30" fill="white"/>
</clipPath>
</defs>
</svg>
