<svg class="social-icon facebook-icon" width="24" height="24" viewBox="0 0 24 24" xmlns="http://www.w3.org/2000/svg" fill="#a9bac8"><path d="M12 0.380005C5.58337 0.380005 0.333374 5.61834 0.333374 12.07C0.333374 17.9033 4.60337 22.745 10.18 23.62V15.4533H7.21671V12.07H10.18V9.49167C10.18 6.56334 11.9184 4.95334 14.59 4.95334C15.8617 4.95334 17.1917 5.17501 17.1917 5.17501V8.05667H15.7217C14.275 8.05667 13.82 8.95501 13.82 9.87667V12.07H17.0634L16.5384 15.4533H13.82V23.62C16.5692 23.1858 19.0726 21.7831 20.8783 19.6651C22.684 17.547 23.6729 14.8533 23.6667 12.07C23.6667 5.61834 18.4167 0.380005 12 0.380005Z"></path></svg>
