<svg class="social-icon" width="26" height="21" viewBox="0 0 26 21" fill="#a9bac8" xmlns="http://www.w3.org/2000/svg"><path d="M25.2033 2.99996C24.305 3.40829 23.3366 3.67663 22.3333 3.80496C23.36 3.18663 24.1533 2.20663 24.5266 1.02829C23.5583 1.61163 22.485 2.01996 21.3533 2.25329C20.4316 1.24996 19.1366 0.666626 17.6666 0.666626C14.925 0.666626 12.685 2.90663 12.685 5.67163C12.685 6.06829 12.7316 6.45329 12.8133 6.81496C8.65996 6.60496 4.96163 4.60996 2.49996 1.58829C2.0683 2.32329 1.8233 3.18663 1.8233 4.09663C1.8233 5.83496 2.6983 7.37496 4.05163 8.24996C3.2233 8.24996 2.4533 8.01663 1.77663 7.66663C1.77663 7.66663 1.77663 7.66663 1.77663 7.70163C1.77663 10.1283 3.5033 12.1583 5.78996 12.6133C5.36996 12.73 4.92663 12.7883 4.47163 12.7883C4.15663 12.7883 3.84163 12.7533 3.5383 12.695C4.1683 14.6666 5.99996 16.1366 8.20496 16.1716C6.50163 17.525 4.3433 18.3183 1.98663 18.3183C1.58996 18.3183 1.1933 18.295 0.796631 18.2483C3.0133 19.6716 5.64996 20.5 8.4733 20.5C17.6666 20.5 22.7183 12.87 22.7183 6.25496C22.7183 6.03329 22.7183 5.82329 22.7066 5.60163C23.6866 4.90163 24.5266 4.01496 25.2033 2.99996Z"></path></svg>
