<svg width="28" height="28" viewBox="0 0 28 28" fill="none" xmlns="http://www.w3.org/2000/svg">
<path fill-rule="evenodd" clip-rule="evenodd" d="M14.0002 25.9993C20.6274 25.9993 25.9998 20.6269 25.9998 13.9997C25.9998 7.37244 20.6274 2 14.0002 2C7.37293 2 2.00049 7.37244 2.00049 13.9997C2.00049 20.6269 7.37293 25.9993 14.0002 25.9993ZM14.3683 5.60097H17.0784C17.0784 5.60097 17.0011 9.2939 21.1996 9.69408V12.4743C18.658 12.4252 17.1696 11.1404 17.1696 11.1404V17.2133C17.0362 19.9795 14.7545 22.1489 11.9883 22.1489C9.12383 22.1489 6.79995 19.8321 6.79995 16.9606C6.79995 14.0891 9.12383 11.7652 11.9883 11.7652C12.2691 11.7652 12.55 11.7933 12.8238 11.8354V14.9175C12.564 14.8263 12.2972 14.7771 12.0234 14.7771C10.7246 14.7771 9.67145 15.8302 9.67145 17.1291C9.67145 18.4279 10.7246 19.481 12.0234 19.481C13.2661 19.481 14.2981 18.5052 14.3683 17.2555V5.60097Z" fill="#A9BAC8"/>
</svg>
